<?xml version="1.0" standalone="no"?>
<!DOCTYPE svg PUBLIC "-//W3C//DTD SVG 20010904//EN"
 "http://www.w3.org/TR/2001/REC-SVG-20010904/DTD/svg10.dtd">
<svg version="1.0" xmlns="http://www.w3.org/2000/svg"
 width="1333.000000pt" height="1333.000000pt" viewBox="0 0 1333.000000 1333.000000"
 preserveAspectRatio="xMidYMid meet">
<metadata>
Created by potrace 1.11, written by Peter Selinger 2001-2013
</metadata>
<g transform="translate(0.000000,1333.000000) scale(0.100000,-0.100000)"
fill="#000000" stroke="none">
<path d="M0 6665 l0 -6665 6665 0 6665 0 0 6665 0 6665 -6665 0 -6665 0 0
-6665z m7111 2602 l446 -1372 1443 -5 1442 -5 -1158 -839 c-638 -462 -1162
-842 -1166 -845 -4 -4 193 -622 438 -1375 245 -753 444 -1370 442 -1371 -2 -2
-527 376 -1168 841 -641 464 -1169 842 -1175 840 -5 -2 -532 -382 -1170 -844
-638 -463 -1161 -839 -1163 -838 -2 2 197 619 442 1372 245 753 442 1371 438
1375 -4 3 -528 384 -1165 845 l-1158 839 1442 5 1442 5 446 1372 c245 755 448
1373 451 1373 3 0 206 -618 451 -1373z"/>
</g>
</svg>
